<?xml version="1.0" encoding="UTF-8"?>
<!DOCTYPE svg PUBLIC "-//W3C//DTD SVG 1.1//EN" "http://www.w3.org/Graphics/SVG/1.1/DTD/svg11.dtd">
<svg xmlns="http://www.w3.org/2000/svg" version="1.1" width="700px" height="691px" style="shape-rendering:geometricPrecision; text-rendering:geometricPrecision; image-rendering:optimizeQuality; fill-rule:evenodd; clip-rule:evenodd" xmlns:xlink="http://www.w3.org/1999/xlink">
<g><path style="opacity:0.996" fill="#266fb7" d="M 300.5,32.5 C 300.5,32.8333 300.5,33.1667 300.5,33.5C 292.804,33.1692 285.138,33.5025 277.5,34.5C 297.5,75.8333 317.5,117.167 337.5,158.5C 329.677,159.167 322.01,159.833 314.5,160.5C 314.5,160.833 314.5,161.167 314.5,161.5C 314.5,183.833 314.5,206.167 314.5,228.5C 282.685,164.868 251.352,100.868 220.5,36.5C 220.863,35.8165 221.196,35.1499 221.5,34.5C 224.641,33.6787 227.975,33.1787 231.5,33C 254.498,32.5 277.498,32.3334 300.5,32.5 Z"/></g>
<g><path style="opacity:1" fill="#2d6db6" d="M 300.5,33.5 C 308.752,33.1842 316.919,33.5175 325,34.5C 345,75.8333 365,117.167 385,158.5C 395.09,159.321 405.256,159.821 415.5,160C 381.835,160.5 348.168,160.667 314.5,160.5C 322.01,159.833 329.677,159.167 337.5,158.5C 317.5,117.167 297.5,75.8333 277.5,34.5C 285.138,33.5025 292.804,33.1692 300.5,33.5 Z"/></g>
<g><path style="opacity:1" fill="#3269b1" d="M 300.5,33.5 C 300.5,33.1667 300.5,32.8333 300.5,32.5C 339.67,32.1681 378.67,32.5015 417.5,33.5C 401.819,33.1673 386.152,33.5006 370.5,34.5C 391.365,78.2286 412.699,121.562 434.5,164.5C 428.232,163.273 421.899,162.439 415.5,162C 381.835,161.5 348.168,161.333 314.5,161.5C 314.5,161.167 314.5,160.833 314.5,160.5C 348.168,160.667 381.835,160.5 415.5,160C 405.256,159.821 395.09,159.321 385,158.5C 365,117.167 345,75.8333 325,34.5C 316.919,33.5175 308.752,33.1842 300.5,33.5 Z"/></g>
<g><path style="opacity:0.998" fill="#3668b2" d="M 417.5,33.5 C 423.567,34.1847 429.734,34.8514 436,35.5C 473.394,113.289 511.061,190.956 549,268.5C 550.622,269.099 552.122,269.766 553.5,270.5C 543.058,272.379 532.391,273.546 521.5,274C 505.503,274.5 489.503,274.667 473.5,274.5C 474.603,251.517 474.769,228.517 474,205.5C 468.52,184.519 455.354,170.852 434.5,164.5C 412.699,121.562 391.365,78.2286 370.5,34.5C 386.152,33.5006 401.819,33.1673 417.5,33.5 Z"/></g>
<g><path style="opacity:1" fill="#3b65af" d="M 417.5,33.5 C 452.863,33.2827 487.196,39.116 520.5,51C 530.291,54.7299 539.624,59.2299 548.5,64.5C 575.985,122.803 603.985,180.803 632.5,238.5C 632.287,241.475 631.287,244.142 629.5,246.5C 605.91,259.918 580.576,267.918 553.5,270.5C 552.122,269.766 550.622,269.099 549,268.5C 511.061,190.956 473.394,113.289 436,35.5C 429.734,34.8514 423.567,34.1847 417.5,33.5 Z"/></g>
<g><path style="opacity:0.999" fill="#1d71b8" d="M 221.5,34.5 C 221.196,35.1499 220.863,35.8165 220.5,36.5C 251.352,100.868 282.685,164.868 314.5,228.5C 314.5,241.5 314.5,254.5 314.5,267.5C 301.984,269.428 290.651,274.095 280.5,281.5C 244.528,208.558 208.861,135.558 173.5,62.5C 185.754,46.9462 201.754,37.6129 221.5,34.5 Z"/></g>
<g><path style="opacity:0.999" fill="#1573ba" d="M 173.5,62.5 C 208.861,135.558 244.528,208.558 280.5,281.5C 267.103,293.244 258.77,307.911 255.5,325.5C 223.152,258.76 190.819,192.093 158.5,125.5C 158.106,113.114 158.606,100.78 160,88.5C 162.169,78.4915 166.669,69.8249 173.5,62.5 Z"/></g>
<g><path style="opacity:0.991" fill="#3e63ae" d="M 548.5,64.5 C 614.454,103.751 642.454,161.751 632.5,238.5C 603.985,180.803 575.985,122.803 548.5,64.5 Z"/></g>
<g><path style="opacity:1" fill="#0f74ba" d="M 158.5,125.5 C 190.819,192.093 223.152,258.76 255.5,325.5C 255.852,328.073 255.352,330.406 254,332.5C 231.574,296.926 200.074,273.259 159.5,261.5C 158.5,216.172 158.167,170.838 158.5,125.5 Z"/></g>
<g><path style="opacity:1" fill="#275a94" d="M 143.5,284.5 C 139.033,284.133 134.7,284.633 130.5,286C 107.915,305.004 95.2488,329.17 92.5,358.5C 93.2606,365.196 94.2606,371.862 95.5,378.5C 92.1667,378.5 88.8333,378.5 85.5,378.5C 77.039,379.033 72.039,378.7 70.5,377.5C 66.7353,350.968 73.2353,327.301 90,306.5C 96.5,298.667 103.667,291.5 111.5,285C 108.635,284.817 105.969,284.317 103.5,283.5C 116.903,280.679 130.237,281.012 143.5,284.5 Z"/></g>
<g><path style="opacity:1" fill="#25548f" d="M 103.5,283.5 C 105.969,284.317 108.635,284.817 111.5,285C 103.667,291.5 96.5,298.667 90,306.5C 73.2353,327.301 66.7353,350.968 70.5,377.5C 72.039,378.7 77.039,379.033 85.5,378.5C 85.5,378.833 85.5,379.167 85.5,379.5C 78.5,379.5 71.5,379.5 64.5,379.5C 56.8205,380.334 53.4872,380 54.5,378.5C 52.7901,363.844 54.2901,349.511 59,335.5C 63.0782,327.009 67.4116,318.676 72,310.5C 75.568,306.711 78.9014,302.711 82,298.5C 84.4033,295.592 87.2367,293.259 90.5,291.5C 92.415,289.929 93.415,287.929 93.5,285.5C 96.6791,284.207 100.012,283.54 103.5,283.5 Z"/></g>
<g><path style="opacity:1" fill="#285f99" d="M 143.5,284.5 C 146.428,284.565 149.095,285.232 151.5,286.5C 133.356,300.689 121.856,319.689 117,343.5C 115.374,356.428 116.874,368.928 121.5,381C 120.263,381.232 119.263,381.732 118.5,382.5C 107.444,381.561 96.444,380.561 85.5,379.5C 85.5,379.167 85.5,378.833 85.5,378.5C 88.8333,378.5 92.1667,378.5 95.5,378.5C 94.2606,371.862 93.2606,365.196 92.5,358.5C 95.2488,329.17 107.915,305.004 130.5,286C 134.7,284.633 139.033,284.133 143.5,284.5 Z"/></g>
<g><path style="opacity:1" fill="#234f8a" d="M 93.5,285.5 C 93.415,287.929 92.415,289.929 90.5,291.5C 87.2367,293.259 84.4033,295.592 82,298.5C 78.9014,302.711 75.568,306.711 72,310.5C 67.4116,318.676 63.0782,327.009 59,335.5C 54.2901,349.511 52.7901,363.844 54.5,378.5C 53.4872,380 56.8205,380.334 64.5,379.5C 52.2943,380.671 39.961,382.004 27.5,383.5C 41.4549,353.59 55.9549,323.923 71,294.5C 77.8873,290.036 85.3873,287.036 93.5,285.5 Z"/></g>
<g><path style="opacity:1" fill="#268bc3" d="M 338.5,286.5 C 340.698,287.165 343.031,287.832 345.5,288.5C 333.207,307.432 333.707,326.099 347,344.5C 362.344,361.16 380.844,372.994 402.5,380C 423.586,387.35 445.252,392.017 467.5,394C 462.649,394.174 457.982,394.674 453.5,395.5C 446.126,395.616 438.792,395.116 431.5,394C 411.151,390.608 390.818,387.441 370.5,384.5C 361.009,383.67 351.342,383.17 341.5,383C 343.833,382.667 346.167,382.333 348.5,382C 333.921,374.424 321.421,364.257 311,351.5C 299.025,332.671 298.525,313.671 309.5,294.5C 318.501,289.83 328.168,287.164 338.5,286.5 Z"/></g>
<g><path style="opacity:1" fill="#26659e" d="M 151.5,286.5 C 158.675,288.094 165.341,290.761 171.5,294.5C 144.764,322.278 140.597,353.278 159,387.5C 161.202,390.113 163.702,392.113 166.5,393.5C 150.53,389.172 134.53,385.505 118.5,382.5C 119.263,381.732 120.263,381.232 121.5,381C 116.874,368.928 115.374,356.428 117,343.5C 121.856,319.689 133.356,300.689 151.5,286.5 Z"/></g>
<g><path style="opacity:1" fill="#2491c8" d="M 382.5,291.5 C 380.396,291.201 378.396,291.534 376.5,292.5C 371.093,303.578 371.259,314.578 377,325.5C 383.833,337.667 393.333,347.167 405.5,354C 447.217,374.758 491.051,382.258 537,376.5C 540.68,378.053 544.18,377.719 547.5,375.5C 550.105,377.058 552.438,376.725 554.5,374.5C 557.04,376.139 559.207,375.806 561,373.5C 563.075,374.895 564.908,374.562 566.5,372.5C 569.028,373.498 569.028,374.331 566.5,375C 566.728,375.399 567.062,375.565 567.5,375.5C 563.397,379.061 558.73,381.894 553.5,384C 520.681,393.591 487.347,397.424 453.5,395.5C 457.982,394.674 462.649,394.174 467.5,394C 445.252,392.017 423.586,387.35 402.5,380C 380.844,372.994 362.344,361.16 347,344.5C 333.707,326.099 333.207,307.432 345.5,288.5C 343.031,287.832 340.698,287.165 338.5,286.5C 353.433,285.99 368.1,287.657 382.5,291.5 Z"/></g>
<g><path style="opacity:1" fill="#2497ce" d="M 382.5,291.5 C 389.724,291.865 396.724,292.865 403.5,294.5C 401.143,294.337 398.81,294.503 396.5,295C 398.5,295.333 400.5,295.667 402.5,296C 400.197,306.817 402.363,316.65 409,325.5C 426.66,343.316 447.326,354.316 471,358.5C 472,359.167 473,359.833 474,360.5C 476,360.5 478,360.5 480,360.5C 481.705,361.763 483.372,362.097 485,361.5C 487.324,362.845 489.658,363.178 492,362.5C 497.604,363.408 503.438,364.408 509.5,365.5C 533.369,366.844 557.036,364.844 580.5,359.5C 581.584,359.685 582.584,360.018 583.5,360.5C 578.776,366.227 573.442,371.227 567.5,375.5C 567.062,375.565 566.728,375.399 566.5,375C 569.028,374.331 569.028,373.498 566.5,372.5C 564.908,374.562 563.075,374.895 561,373.5C 559.207,375.806 557.04,376.139 554.5,374.5C 552.438,376.725 550.105,377.058 547.5,375.5C 544.18,377.719 540.68,378.053 537,376.5C 491.051,382.258 447.217,374.758 405.5,354C 393.333,347.167 383.833,337.667 377,325.5C 371.259,314.578 371.093,303.578 376.5,292.5C 378.396,291.534 380.396,291.201 382.5,291.5 Z"/></g>
<g><path style="opacity:0.999" fill="#24a5db" d="M 605.5,322.5 C 604.883,322.389 604.383,322.056 604,321.5C 567.33,333.979 531.83,330.812 497.5,312C 493.686,309.353 490.353,306.187 487.5,302.5C 477.851,301.668 468.184,301.168 458.5,301C 477.338,300.832 496.004,300.332 514.5,299.5C 546.195,297.928 576.861,291.428 606.5,280C 611.242,277.88 615.742,275.38 620,272.5C 617.042,289.658 612.209,306.325 605.5,322.5 Z"/></g>
<g><path style="opacity:1" fill="#266ba4" d="M 171.5,294.5 C 176.5,296.664 181.167,299.331 185.5,302.5C 183.61,302.297 182.11,302.963 181,304.5C 159.607,341.076 164.607,373.743 196,402.5C 196.483,403.448 196.649,404.448 196.5,405.5C 186.509,401.285 176.509,397.285 166.5,393.5C 163.702,392.113 161.202,390.113 159,387.5C 140.597,353.278 144.764,322.278 171.5,294.5 Z"/></g>
<g><path style="opacity:1" fill="#2985bc" d="M 309.5,294.5 C 298.525,313.671 299.025,332.671 311,351.5C 321.421,364.257 333.921,374.424 348.5,382C 346.167,382.333 343.833,382.667 341.5,383C 351.342,383.17 361.009,383.67 370.5,384.5C 360.828,384.334 351.161,384.5 341.5,385C 333.913,386.028 326.913,388.528 320.5,392.5C 311.048,387.572 302.215,381.572 294,374.5C 288.623,368.792 283.623,362.792 279,356.5C 275.718,350.654 273.218,344.487 271.5,338C 271.164,336.97 270.497,336.47 269.5,336.5C 277.429,317.274 290.762,303.274 309.5,294.5 Z"/></g>
<g><path style="opacity:1" fill="#259cd3" d="M 403.5,294.5 C 421.975,296.233 440.308,297.9 458.5,299.5C 453.5,299.5 448.5,299.5 443.5,299.5C 444.668,307.668 448.334,314.502 454.5,320C 472.205,333.463 492.205,341.463 514.5,344C 542.462,348.202 569.795,346.702 596.5,339.5C 593.382,347.278 589.049,354.278 583.5,360.5C 582.584,360.018 581.584,359.685 580.5,359.5C 557.036,364.844 533.369,366.844 509.5,365.5C 503.438,364.408 497.604,363.408 492,362.5C 489.658,363.178 487.324,362.845 485,361.5C 483.372,362.097 481.705,361.763 480,360.5C 478,360.5 476,360.5 474,360.5C 473,359.833 472,359.167 471,358.5C 447.326,354.316 426.66,343.316 409,325.5C 402.363,316.65 400.197,306.817 402.5,296C 400.5,295.667 398.5,295.333 396.5,295C 398.81,294.503 401.143,294.337 403.5,294.5 Z"/></g>
<g><path style="opacity:1" fill="#249fd6" d="M 458.5,299.5 C 477.167,299.5 495.833,299.5 514.5,299.5C 496.004,300.332 477.338,300.832 458.5,301C 468.184,301.168 477.851,301.668 487.5,302.5C 490.353,306.187 493.686,309.353 497.5,312C 531.83,330.812 567.33,333.979 604,321.5C 604.383,322.056 604.883,322.389 605.5,322.5C 603.053,328.546 600.053,334.213 596.5,339.5C 569.795,346.702 542.462,348.202 514.5,344C 492.205,341.463 472.205,333.463 454.5,320C 448.334,314.502 444.668,307.668 443.5,299.5C 448.5,299.5 453.5,299.5 458.5,299.5 Z"/></g>
<g><path style="opacity:0.998" fill="#266ea6" d="M 185.5,302.5 C 188.563,304.025 191.23,306.025 193.5,308.5C 184.992,321.502 181.826,335.835 184,351.5C 186.787,365.739 192.787,378.406 202,389.5C 223.523,412.001 249.023,428.501 278.5,439C 289.292,443.209 300.292,446.709 311.5,449.5C 311.72,456.543 311.386,463.543 310.5,470.5C 300.423,468.481 290.423,466.147 280.5,463.5C 259.977,444.569 237.643,428.069 213.5,414C 207.807,411.153 202.14,408.32 196.5,405.5C 196.649,404.448 196.483,403.448 196,402.5C 164.607,373.743 159.607,341.076 181,304.5C 182.11,302.963 183.61,302.297 185.5,302.5 Z"/></g>
<g><path style="opacity:0.999" fill="#2773ac" d="M 193.5,308.5 C 197.456,310.485 201.122,312.985 204.5,316C 206.373,317.704 208.04,319.537 209.5,321.5C 204.604,344.567 210.104,365.233 226,383.5C 250.007,407.765 278.507,424.765 311.5,434.5C 311.5,439.5 311.5,444.5 311.5,449.5C 300.292,446.709 289.292,443.209 278.5,439C 249.023,428.501 223.523,412.001 202,389.5C 192.787,378.406 186.787,365.739 184,351.5C 181.826,335.835 184.992,321.502 193.5,308.5 Z"/></g>
<g><path style="opacity:0.997" fill="#2879b1" d="M 209.5,321.5 C 218.128,328.294 225.961,335.961 233,344.5C 242.004,355.208 250.504,366.208 258.5,377.5C 257.697,378.423 257.53,379.423 258,380.5C 273.97,395.294 292.137,406.627 312.5,414.5C 312.664,421.202 312.331,427.869 311.5,434.5C 278.507,424.765 250.007,407.765 226,383.5C 210.104,365.233 204.604,344.567 209.5,321.5 Z"/></g>
<g><path style="opacity:0.994" fill="#2a7fb8" d="M 269.5,336.5 C 270.497,336.47 271.164,336.97 271.5,338C 273.218,344.487 275.718,350.654 279,356.5C 283.623,362.792 288.623,368.792 294,374.5C 302.215,381.572 311.048,387.572 320.5,392.5C 319.167,393.933 317.667,395.267 316,396.5C 313.741,402.293 312.575,408.293 312.5,414.5C 292.137,406.627 273.97,395.294 258,380.5C 257.53,379.423 257.697,378.423 258.5,377.5C 259.848,363.102 263.514,349.436 269.5,336.5 Z"/></g>
<g><path style="opacity:0.999" fill="#2d6bb1" d="M 408.5,417.5 C 406.801,417.34 405.134,417.506 403.5,418C 404.448,418.483 405.448,418.649 406.5,418.5C 406.821,439.576 406.488,460.576 405.5,481.5C 388.683,459.841 372.016,438.007 355.5,416C 355.645,415.228 355.978,414.561 356.5,414C 361.684,412.204 367.017,411.371 372.5,411.5C 384.806,412.44 396.806,414.44 408.5,417.5 Z"/></g>
<g><path style="opacity:1" fill="#3b66af" d="M 629.5,520.5 C 628.501,558.663 628.168,596.996 628.5,635.5C 619.215,644.142 608.215,649.642 595.5,652C 574.361,656.345 554.361,653.345 535.5,643C 531.025,640.35 527.025,637.183 523.5,633.5C 524.499,562.335 524.833,491.002 524.5,419.5C 522.833,419.5 521.167,419.5 519.5,419.5C 528.702,417.226 538.035,415.393 547.5,414C 575.049,449.376 602.382,484.876 629.5,520.5 Z"/></g>
<g><path style="opacity:1" fill="#336ab2" d="M 408.5,417.5 C 431.968,421.709 455.635,423.709 479.5,423.5C 471.684,424.492 463.684,424.826 455.5,424.5C 455.511,465.472 455.511,506.139 455.5,546.5C 438.864,524.857 422.198,503.191 405.5,481.5C 406.488,460.576 406.821,439.576 406.5,418.5C 405.448,418.649 404.448,418.483 403.5,418C 405.134,417.506 406.801,417.34 408.5,417.5 Z"/></g>
<g><path style="opacity:0.999" fill="#3668b2" d="M 519.5,419.5 C 521.167,419.5 522.833,419.5 524.5,419.5C 524.833,491.002 524.499,562.335 523.5,633.5C 520.536,631.038 517.703,628.371 515,625.5C 495.335,599.007 475.501,572.673 455.5,546.5C 455.511,506.139 455.511,465.472 455.5,424.5C 463.684,424.826 471.684,424.492 479.5,423.5C 492.799,422.303 506.132,420.97 519.5,419.5 Z"/></g>
<g><path style="opacity:1" fill="#1473ba" d="M 233.5,450.5 C 232.173,518.627 230.84,586.627 229.5,654.5C 195.992,651.823 173.158,634.823 161,603.5C 160.206,600.529 159.539,597.529 159,594.5C 158.167,535.164 158.333,475.831 159.5,416.5C 185.979,424.076 210.646,435.409 233.5,450.5 Z"/></g>
<g><path style="opacity:1" fill="#1d71b8" d="M 233.5,450.5 C 254.2,463.349 273.033,478.682 290,496.5C 291.75,498.734 293.25,501.068 294.5,503.5C 294.173,545.906 294.506,588.239 295.5,630.5C 277.3,649.011 255.3,657.011 229.5,654.5C 230.84,586.627 232.173,518.627 233.5,450.5 Z"/></g>
<g><path style="opacity:0.99" fill="#26649d" d="M 280.5,463.5 C 290.423,466.147 300.423,468.481 310.5,470.5C 310.832,480.19 310.498,489.856 309.5,499.5C 299.786,487.462 290.12,475.462 280.5,463.5 Z"/></g>
<g><path style="opacity:0.976" fill="#236fb7" d="M 294.5,503.5 C 301.135,510.975 307.635,518.642 314,526.5C 314.667,546.833 314.667,567.167 314,587.5C 312.948,604.195 306.781,618.528 295.5,630.5C 294.506,588.239 294.173,545.906 294.5,503.5 Z"/></g>
<g><path style="opacity:0.989" fill="#3e63ad" d="M 629.5,520.5 C 651.573,546.358 657.739,575.692 648,608.5C 643.895,619.407 637.395,628.407 628.5,635.5C 628.168,596.996 628.501,558.663 629.5,520.5 Z"/></g>
</svg>
