<?xml version="1.0" encoding="utf-8"?>
<!-- Generator: Adobe Illustrator 28.1.0, SVG Export Plug-In . SVG Version: 6.00 Build 0)  -->
<svg version="1.1" id="Layer_1" xmlns="http://www.w3.org/2000/svg" xmlns:xlink="http://www.w3.org/1999/xlink" x="0px" y="0px"
	 viewBox="0 0 247 245.8" style="enable-background:new 0 0 247 245.8;" xml:space="preserve">
<style type="text/css">
	.st0{fill:url(#SVGID_1_);}
	.st1{fill:url(#SVGID_00000023995621361195757790000013153699143668259213_);}
	.st2{fill:url(#SVGID_00000142174806761837522840000001686731159670745252_);}
	.st3{fill:url(#SVGID_00000013880676342298111900000013800645812158261421_);}
	.st4{fill:url(#SVGID_00000164498997296175870220000000186150524518794376_);}
</style>
<g>
	<linearGradient id="SVGID_1_" gradientUnits="userSpaceOnUse" x1="46.2514" y1="169.5685" x2="227.4095" y2="377.2771">
		<stop  offset="0.3913" style="stop-color:#875CF0"/>
		<stop  offset="0.5551" style="stop-color:#895CEE"/>
		<stop  offset="0.6141" style="stop-color:#905AE9"/>
		<stop  offset="0.6562" style="stop-color:#9B58DF"/>
		<stop  offset="0.6902" style="stop-color:#AC54D2"/>
		<stop  offset="0.7193" style="stop-color:#C250C0"/>
		<stop  offset="0.7446" style="stop-color:#DD4BAB"/>
		<stop  offset="0.7548" style="stop-color:#EA48A0"/>
	</linearGradient>
	<path class="st0" d="M112.5,194.8c-3.8-4.6-7.2-9.6-11.5-13.8c-13.6-13.2-29.2-23.2-47.5-28.6c-1.5-0.4-1.9-0.3-1.9,1.4
		c0.1,10.9,0,21.7,0,32.6l0,0c0,10.3,0,20.7,0,31c0,5.2,1.3,10,4.2,14.4c8.7,13.4,24.7,16.8,38.1,12c11.4-4.1,18.8-14.1,19-25.4
		c0.1-7.2,0-14.5,0-21.7C113,195.9,113,195.3,112.5,194.8z"/>
	
		<linearGradient id="SVGID_00000157269743229351144850000011502766799609116575_" gradientUnits="userSpaceOnUse" x1="182.7774" y1="160.1175" x2="211.9148" y2="273.7491">
		<stop  offset="0.6847" style="stop-color:#875CF0"/>
		<stop  offset="1" style="stop-color:#EA48A0"/>
	</linearGradient>
	<path style="fill:url(#SVGID_00000157269743229351144850000011502766799609116575_);" d="M240.5,196.7c-3-4.4-6.4-8.6-9.6-12.8
		c-8.2-10.7-16.5-21.4-24.7-32.1c-0.4-0.5-0.7-1.2-1.7-1c-5.3,1.1-10.7,2-16.1,3c0,0,0,0,0,0c0,0,0,0,0,0c-3.3,0.3-6.5,0.5-9.8,0.8
		c-0.7-0.3-1.4-0.1-2.1-0.1c-0.1,0-0.1,0-0.2,0c-3-0.1-6.1,0-9.1-0.1c-0.4,0-0.8,0-1.3,0c-8.9-0.9-17.6-2.8-26.4-4.3
		c-3.3-0.6-6.6-0.4-9.9,1.1c0.4,0.6,0.8,1.1,1.1,1.6c6.8,8.8,13.5,17.6,20.3,26.5c11.9,15.5,23.8,31.1,35.8,46.6h0l0,0
		c1.9,2.6,3.8,5.2,5.8,7.8c1.6,2,3.4,3.9,5.5,5.4c7.2,5.2,15.2,6.9,23.9,5.9c11.2-1.3,20.8-9.1,23.8-20
		C248.6,214.7,246.2,205.3,240.5,196.7z"/>
	
		<linearGradient id="SVGID_00000036942622482146614570000014865998812415596185_" gradientUnits="userSpaceOnUse" x1="110.6808" y1="18.1821" x2="-5.8779" y2="-150.6847">
		<stop  offset="0" style="stop-color:#875CF0"/>
		<stop  offset="1" style="stop-color:#EA48A0"/>
	</linearGradient>
	<path style="fill:url(#SVGID_00000036942622482146614570000014865998812415596185_);" d="M53.6,90.5c13.2,4,24.2,11.4,32.4,22.6
		c1.1,1.5,2.2,3,3.6,4.8c1.1-8.5,4.4-15.3,10.7-20.6c0,0,0,0,0,0c3.4-2,6.9-4,10.9-4.8c1.5-0.3,1.8-0.9,1.8-2.4
		C113,77.6,113,65,113,52.5c0-1.8,0.5-2.1,2.2-2.1c7.2,0.1,14.3,0,21.5,0v0c3.4,0,6.7,0.1,10.1,0.1c3.3,0,6.6-0.1,9.9,0.3
		c6.2,0.8,11.4,3.3,15.7,8c3.4,3.8,4.6,8.3,4.6,13.2c0,7.2-0.2,14.3-0.3,21.5c0,1.1,0,1.8,1.3,1.8c6.8,0,13.7,0,20.5-0.7l0,0
		c4.2,0,8.3-0.7,12.3-1.3c8.9-1.5,17.6-3.8,25.6-8.2c1.3-0.7,2.1-1.6,2.4-3.1c2.1-8.5,1.4-17-0.3-25.5
		c-4.2-20.8-16.5-35.7-35.1-45.3c-18.1-9.3-37.5-11.5-57.5-11h0c0,0,0,0,0,0c0,0,0,0,0,0c-8.7,0-17.3-0.1-26-0.1
		c-6.7,0-13.4,0-20.1,0.1c-0.1,0-0.1,0-0.2,0c-6.7,0-13.4-0.3-20.1,0.1c-9,0.5-16.3,4.7-21.9,11.7c0,0,0,0,0,0c0,0,0,0,0,0
		c-4.1,4.8-5.8,10.4-5.8,16.5c0,19.8,0,39.5-0.1,59.3C51.6,89.3,52,90,53.6,90.5z"/>
	
		<linearGradient id="SVGID_00000172441836993753224750000004357209561595823758_" gradientUnits="userSpaceOnUse" x1="57.51" y1="11.9202" x2="57.52" y2="11.9202">
		<stop  offset="0" style="stop-color:#875CF0"/>
		<stop  offset="1" style="stop-color:#EA48A0"/>
	</linearGradient>
	<polygon style="fill:url(#SVGID_00000172441836993753224750000004357209561595823758_);" points="57.5,11.9 57.5,11.9 57.5,11.9 	
		"/>
	
		<linearGradient id="SVGID_00000088851033348108061260000006143833597848398224_" gradientUnits="userSpaceOnUse" x1="56.9559" y1="91.6058" x2="270.1423" y2="180.4335">
		<stop  offset="0.8605" style="stop-color:#875CF0"/>
		<stop  offset="1" style="stop-color:#EA48A0"/>
	</linearGradient>
	<path style="fill:url(#SVGID_00000088851033348108061260000006143833597848398224_);" d="M167.4,143.1c9.6,0.4,19.1-0.2,28.5-1.9
		c4.4-0.8,8.9-1.5,13-3.5c5.2-2.5,9.2-6.5,12.4-11.2c0,0,0,0,0,0c0,0,0,0,0,0l0,0c0.4-0.5,0.7-0.9,1.1-1.4c4.9-7.7,8-16.1,10.4-24.8
		c0.5-1.7,1.2-3.4,1.2-5.4c-5,3-10.1,5-15.5,6.4c-9.7,2.7-19.6,3.7-29.6,4.2c-6.1,0.3-12.2,0.3-18.3-0.1c-5.9-0.3-11.7-0.9-17.6-1.5
		c-0.1-0.1-0.2-0.2-0.3-0.2c-7.2-0.8-14.3-1.8-21.3-3.2c-5-1-9.9-0.6-14.7,1l0,0c-2.1,0.2-3.9,1.1-5.7,2
		c-10.3,5.2-15.5,14.2-18.1,25c0,0,0,0,0,0c0,0,0,0,0,0l0,0c-1,2.4-1,5.1-1.9,7.9c-3.1-4.1-6-8-9.1-11.8c-3.9-4.7-8-9.1-12.8-12.9
		c0,0,0,0,0,0c-3.8-3.4-8-6.4-12.7-8.4l0,0c0,0,0,0,0,0c-2.3-0.9-4.6-1.7-6.8-2.7c-5.9-2.5-11.9-2.6-18.1-1.8c0.1,0,0.1,0,0.2,0
		c-0.1,0-0.1,0-0.2,0c-4.4,0.3-8.4,1.8-12.5,3.4c-1.2,0.5-1.9,1.2-2.5,2.3c-3.8,7.7-7.6,15.4-11.4,23.1c-1.7,3.4-3.3,6.8-5.1,10.5
		c3.5-0.5,6.7-0.9,9.8-1.3l0,0c0,0,0,0,0,0c0.3,0,0.5,0.1,0.8,0.1c10.7-0.7,21.4-0.1,31.9,2.1c3,0.7,6.1,1.4,9.1,2.1c0,0,0,0,0.1,0
		c0,0,0,0-0.1,0c7.9,2.4,15.5,5.3,22.6,9.5c8.4,5,16.4,10.6,23.7,17.2c0,0,0,0,0,0c4.7,5,8.7,10.6,13.4,16c0.3-4.7,0.4-9.1,0.3-13.5
		c0,0,0,0,0,0c0-0.9,0-1.8,0-2.7c0,0,0,0,0-0.1c0.3-0.6,0.2-1.2,0.2-1.9c0.4-6.9-0.2-13.8,1-20.7c0,0,0,0,0,0
		c0.8-2.2,2.6-3.4,4.5-4.5c2.3-1.3,5-1.6,7.5-2.2c8.1-0.5,16,0.8,23.9,2.1C155,141.7,161.2,142.8,167.4,143.1z"/>
</g>
</svg>
