<?xml version="1.0" encoding="UTF-8"?>
<svg id="Layer_1" data-name="Layer 1" xmlns="http://www.w3.org/2000/svg" viewBox="0 0 247 245.8">
  <defs>
    <style>
      .cls-1 {
        fill: #346bb3;
      }

      .cls-1, .cls-2, .cls-3, .cls-4, .cls-5, .cls-6, .cls-7, .cls-8, .cls-9, .cls-10, .cls-11, .cls-12, .cls-13, .cls-14, .cls-15 {
        stroke-width: 0px;
      }

      .cls-2 {
        fill: #346bb4;
      }

      .cls-3 {
        fill: #2668a1;
      }

      .cls-4 {
        fill: #2596ce;
      }

      .cls-5 {
        fill: #275a94;
      }

      .cls-6 {
        fill: #25a0d8;
      }

      .cls-7 {
        fill: #2987bf;
      }

      .cls-8 {
        fill: #3a66b0;
      }

      .cls-9 {
        fill: #2979b2;
      }

      .cls-10 {
        fill: #266fa8;
      }

      .cls-11 {
        fill: #3a67b0;
      }

      .cls-12 {
        fill: #266fb7;
      }

      .cls-13 {
        fill: #0f74bb;
      }

      .cls-14 {
        fill: #1773ba;
      }

      .cls-15 {
        fill: #26669f;
      }
    </style>
  </defs>
  <path class="cls-11" d="M145.78.12c19.97-.52,39.45,1.74,57.51,11.01,18.69,9.6,30.89,24.45,35.14,45.27,1.72,8.41,2.42,16.93.31,25.45-.37,1.48-1.15,2.36-2.44,3.07-8,4.43-16.66,6.79-25.6,8.25-4.08.66-8.18,1.34-12.34,1.33-1.51-2.92-3.07-5.82-4.39-8.83-2.31-5.25-4.95-10.33-7.45-15.49-5.46-11.26-10.92-22.52-16.38-33.78-5.14-10.6-10.39-21.16-15.34-31.86-1.09-2.36-2.48-3.57-5.12-3.17-.77.12-1.59.09-2.36-.07-.68-.14-1.5-.18-1.53-1.18Z"/>
  <path class="cls-14" d="M51.66,186.33c0-10.87.04-21.73-.04-32.6-.01-1.67.42-1.79,1.87-1.36,18.34,5.41,33.94,15.44,47.54,28.62,4.27,4.14,7.69,9.16,11.52,13.76.47.57.45,1.2.45,1.86,0,7.24.08,14.49-.02,21.73-.16,11.26-7.58,21.3-19,25.37-13.44,4.8-29.45,1.43-38.14-12-2.83-4.37-4.16-9.21-4.17-14.38-.04-10.34-.01-20.68-.01-31.02Z"/>
  <path class="cls-8" d="M188.48,153.85c5.37-.97,10.74-1.9,16.09-2.95,1.02-.2,1.26.42,1.68.96,8.23,10.69,16.47,21.38,24.68,32.08,3.24,4.23,6.64,8.36,9.6,12.79,5.72,8.58,8.11,17.93,5.27,28.15-3.01,10.85-12.59,18.71-23.77,19.99-8.75,1-16.74-.67-23.9-5.88-2.09-1.52-3.91-3.34-5.48-5.38-1.97-2.55-3.86-5.16-5.79-7.75.54-1.51.58-3.08.58-4.67,0-21.18-.01-42.36.01-63.54,0-1.33-.37-2.82,1.03-3.8Z"/>
  <path class="cls-12" d="M136.66,50.28c-7.17.03-14.33.12-21.5.05-1.68-.01-2.22.32-2.2,2.14.09,12.56.03,25.12.09,37.68,0,1.45-.38,2.06-1.85,2.36-3.97.8-7.46,2.79-10.91,4.81-2.2-2.13-3.12-5.01-4.33-7.67-2.51-5.51-5.3-10.89-7.9-16.36-8.18-17.17-16.41-34.32-24.81-51.39-1.04-2.12-2.03-4.28-3.04-6.43-.66-1.39-1.45-2.63-2.7-3.56C63.11,4.84,70.37.66,79.38.18c6.69-.36,13.42-.06,20.13-.06,2.16.14,4.26.58,6.38.97,1.29.24,2.17.72,2.76,1.9,3.5,7.01,6.82,14.1,10.26,21.13,3.88,7.92,7.62,15.9,11.57,23.78.65,1.29,1.64,1.46,2.91,1.54,1.11.07,2.51-.68,3.27.84Z"/>
  <path class="cls-1" d="M136.66,50.28c-1.35-.79-2.82-.29-4.23-.33-1.05-.03-1.66-.31-2.14-1.29-6.1-12.66-12.23-25.3-18.37-37.94-1.29-2.66-2.64-5.29-3.96-7.94-.27-.55-.57-1.11-1.27-1.07-2.41.14-4.45-1.59-6.87-1.34-.09,0-.2-.15-.3-.23,6.76-.03,13.52-.08,20.27-.08,8.66,0,17.32.05,25.99.08,1.6,1.4,3.54.72,5.31.7,1.77-.02,2.73.59,3.49,2.18,4.92,10.25,9.94,20.45,14.91,30.67,3.33,6.86,6.59,13.74,9.91,20.6,6.15,12.72,12.31,25.43,18.48,38.13.32.67.56,1.33.48,2.08-6.8.75-13.63.78-20.46.73-1.31,0-1.36-.75-1.34-1.82.16-7.16.35-14.31.35-21.47,0-4.88-1.21-9.36-4.64-13.15-4.26-4.7-9.48-7.25-15.7-8.05-3.28-.42-6.56-.32-9.85-.35-3.35-.03-6.7-.06-10.06-.1Z"/>
  <path class="cls-13" d="M57.51,11.92c1.51-.1,1.98,1.03,2.51,2.11,5.46,11.32,10.91,22.63,16.39,33.94,6.36,13.15,12.8,26.25,19.08,39.44,1.58,3.32,3.26,6.58,4.81,9.91-6.23,5.26-9.58,12.06-10.66,20.56-1.38-1.83-2.5-3.29-3.6-4.78-8.27-11.19-19.2-18.59-32.45-22.63-1.54-.47-1.96-1.16-1.96-2.74.06-19.75.02-39.51.06-59.26.01-6.16,1.73-11.79,5.83-16.55Z"/>
  <path class="cls-2" d="M188.48,153.85c-.51.84-.4,1.78-.4,2.69,0,22.12,0,44.24-.02,66.37,0,1.1.43,2.47-1.2,2.95-11.92-15.54-23.84-31.08-35.76-46.62-6.77-8.83-13.53-17.65-20.29-26.48-.36-.47-.69-.96-1.12-1.57,3.24-1.47,6.54-1.63,9.86-1.07,8.8,1.47,17.54,3.35,26.43,4.28,3.52.21,7.05.03,10.58.1.71.01,1.44-.15,2.13.15,3.27-.27,6.53-.54,9.8-.8Z"/>
  <path class="cls-4" d="M116.63,101.57c4.81-1.56,9.67-2.01,14.68-.97,7.05,1.46,14.18,2.43,21.34,3.24.12.01.22.13.34.19.85.33,1.52.68,1.65,1.8.78,6.67,5.27,10.81,10.44,14.11,6.89,4.39,14.77,6.2,22.79,7.28,3.78.51,7.58.84,11.41.86,6.42.04,12.74-.63,19.03-1.84,1.01-.19,2.19-.91,3.04.4-3.29,4.68-7.2,8.68-12.45,11.16-4.12,1.95-8.58,2.69-13.01,3.48-9.43,1.7-18.93,2.28-28.49,1.85-6.25-.28-12.38-1.47-18.54-2.5-7.91-1.32-15.83-2.61-23.91-2.11-.71.13-.68-.27-.3-.57.66-.53,1.5-.37,2.29-.4,6.96-.33,13.79.73,20.62,1.8.83.13,1.66.38,2.71.2-.53-.62-1.18-.73-1.77-.92-6.45-2.09-12.48-5.04-17.87-9.14-6.64-5.05-10.31-11.67-9.89-20.23.09-1.87.68-3.62,1.3-5.35.68-1.92.2-2.45-1.88-2.27-1.16.1-2.37,1.04-3.52-.06Z"/>
  <path class="cls-6" d="M221.35,126.63c-1.67-.66-3.23.19-4.77.49-7.26,1.42-14.6,1.87-21.93,1.4-8.98-.57-17.87-2.12-26.07-6.01-6.74-3.2-12.42-7.67-14.38-15.45-.27-1.09.35-2.75-1.69-2.78.03-.05.05-.12.1-.14.12-.05.25-.07.38-.11,5.86.59,11.73,1.18,17.59,1.48,6.08.31,12.21.35,18.33.05,10-.5,19.92-1.48,29.61-4.15,5.34-1.47,10.5-3.37,15.46-6.42,0,2.04-.72,3.71-1.19,5.41-2.39,8.72-5.47,17.16-10.38,24.83-.32.49-.7.94-1.06,1.41Z"/>
  <path class="cls-10" d="M56.41,103.38c4.74,2.05,8.87,5.02,12.72,8.43.52.85.48,1.75.22,2.67-2.74,9.92.65,18.14,7.21,25.38,6.59,7.28,14.93,12.03,23.8,15.94,3.07,1.36,6.22,2.56,9.43,3.55,1.59.49,2.43,1.35,2.2,3.17-.22,1.75.15,3.54-.19,5.3-.02.9-.04,1.79-.05,2.69-.9.59-1.8.13-2.67-.05-2.45-.51-4.84-1.25-7.24-1.96-1.27-.38-2.55-.64-3.89-.45-7.31-6.56-15.3-12.2-23.74-17.2-7.1-4.2-14.76-7.13-22.62-9.55,1.44-.46,1.58-1.21.85-2.54-2.19-4-3.87-8.16-4.09-12.82-.3-6.29,1.69-11.89,4.86-17.17,1.08-1.79,2.39-3.43,3.19-5.38Z"/>
  <path class="cls-7" d="M116.63,101.57c1.21.32,2.3-.31,3.44-.48.8-.12,1.48-.17,2.25.24.96.51,1.18.74.61,1.94-2.38,5-2.18,10.08-.22,15.25,2.44,6.42,7.42,10.3,12.97,13.73,4.61,2.85,9.64,4.7,14.7,6.54.44.16,1.24.08,1,.86-.18.59-.75.81-1.45.7-4.96-.76-9.91-1.65-14.9-2.15-3.32-.33-6.7-.09-10.05-.1-.04,0-.13.07-.13.1.02.11.06.21.1.32-2.53.62-5.16.9-7.48,2.22-1.89,1.08-3.69,2.26-4.47,4.47-.25.15-.5.11-.74-.03-5.01-3-9.95-6.11-14.09-10.32-1.93-1.97-3.19-4.5-5.33-6.28,2.61-10.81,7.77-19.79,18.1-24.99,1.8-.9,3.63-1.84,5.7-2.04Z"/>
  <path class="cls-5" d="M9.8,136.97c-3.15.41-6.31.82-9.8,1.28,1.81-3.71,3.45-7.11,5.12-10.5,3.8-7.71,7.64-15.39,11.42-23.11.55-1.13,1.29-1.88,2.47-2.34,4.04-1.57,8.08-3.09,12.47-3.37,3.86-.25,7.71-.4,11.56.21,1.41.22,1.24,1.15.97,2.05-.29.97-1.13,1.59-1.81,2.31-3.97,4.19-7.33,8.77-9.3,14.27-1.77,4.96-2.01,10.02-1.24,15.17.03.19.08.39.11.58.64,3.49.16,3.98-3.36,3.35-.65-.12-1.3-.17-1.96-.17-5,0-10,0-15,.02-.55,0-1.18-.28-1.66.26Z"/>
  <path class="cls-9" d="M92.84,128.59c.82-.09,1.39.3,1.8.96,3.96,6.3,9.87,10.39,16.08,14.13.78.47,1.52,1.02,2.27,1.53-1.18,6.85-.62,13.78-.99,20.66-.03.65.15,1.32-.21,1.93-.01-1.71-.17-3.44,0-5.13.18-1.81-.79-2.42-2.24-2.88-5.98-1.87-11.72-4.32-17.2-7.34-8.67-4.78-16.54-10.56-21.39-19.49-2.97-5.46-4-11.36-2.44-17.5.31-1.22.57-2.42.59-3.67,4.77,3.8,8.88,8.23,12.76,12.93,3.1,3.76,5.96,7.72,9.1,11.78.9-2.78.87-5.48,1.86-7.92Z"/>
  <path class="cls-15" d="M9.8,136.97c.45-.73,1.18-.46,1.79-.46,5.26-.02,10.53-.01,15.79-.01.39,0,.79-.01,1.18.05,3.27.5,3.2.51,2.61-2.91-1.53-8.89.26-17.02,5.57-24.4,1.89-2.62,3.91-5.09,6.23-7.33.56-.54.94-1.12.75-1.91-.23-.95-1.05-.55-1.63-.69-3.51-.8-7.08-.15-10.61-.4,6.18-.82,12.25-.65,18.11,1.81,2.25.94,4.54,1.77,6.82,2.65.12,1.25-.35,2.22-1.1,3.24-4.4,6.06-7.02,12.74-6.39,20.37.34,4.05,1.91,7.73,3.83,11.28.22.4.41.82.61,1.24q.91,1.86-1.18,1.74c-.2-.01-.39.03-.59.04-3.04-.71-6.08-1.46-9.13-2.12-10.52-2.27-21.16-2.81-31.88-2.13-.26.02-.52-.04-.78-.06Z"/>
  <path class="cls-3" d="M97.95,168.04c.54-1.24,1.52-.7,2.32-.49,3.82.99,7.59,2.22,11.47,2.96.06,4.39-.02,8.77-.35,13.5-4.72-5.41-8.73-10.99-13.44-15.97Z"/>
  <path class="cls-8" d="M178.68,154.66c-3.8.01-7.6.02-11.4.03-.45,0-.93.07-1.3-.28,4.23.18,8.48-.2,12.71.26Z"/>
</svg>