<?xml version="1.0" encoding="UTF-8"?>
<svg id="Layer_1" data-name="Layer 1" xmlns="http://www.w3.org/2000/svg" xmlns:xlink="http://www.w3.org/1999/xlink" viewBox="0 0 247 245.78">
  <defs>
    <style>
      .cls-1 {
        fill: url(#linear-gradient);
      }

      .cls-1, .cls-2, .cls-3, .cls-4, .cls-5 {
        stroke-width: 0px;
      }

      .cls-2 {
        fill: url(#linear-gradient-5);
      }

      .cls-3 {
        fill: url(#linear-gradient-2);
      }

      .cls-4 {
        fill: url(#linear-gradient-3);
      }

      .cls-5 {
        fill: url(#linear-gradient-4);
      }
    </style>
    <linearGradient id="linear-gradient" x1="46.25" y1="169.57" x2="227.41" y2="377.27" gradientUnits="userSpaceOnUse">
      <stop offset=".39" stop-color="#875cf0"/>
      <stop offset=".56" stop-color="#885bee"/>
      <stop offset=".61" stop-color="#8f5ae9"/>
      <stop offset=".66" stop-color="#9b57df"/>
      <stop offset=".69" stop-color="#ac54d1"/>
      <stop offset=".72" stop-color="#c250c0"/>
      <stop offset=".74" stop-color="#dc4aaa"/>
      <stop offset=".75" stop-color="#ea48a0"/>
    </linearGradient>
    <linearGradient id="linear-gradient-2" x1="182.78" y1="160.11" x2="211.91" y2="273.75" gradientUnits="userSpaceOnUse">
      <stop offset=".68" stop-color="#875cf0"/>
      <stop offset="1" stop-color="#ea48a0"/>
    </linearGradient>
    <linearGradient id="linear-gradient-3" x1="110.68" y1="18.18" x2="-5.88" y2="-150.69" gradientUnits="userSpaceOnUse">
      <stop offset="0" stop-color="#875cf0"/>
      <stop offset="1" stop-color="#ea48a0"/>
    </linearGradient>
    <linearGradient id="linear-gradient-4" x1="57.51" y1="11.92" x2="57.52" y2="11.92" gradientUnits="userSpaceOnUse">
      <stop offset="0" stop-color="#875cf0"/>
      <stop offset="1" stop-color="#ea48a0"/>
    </linearGradient>
    <linearGradient id="linear-gradient-5" x1="56.96" y1="91.6" x2="270.14" y2="180.43" gradientUnits="userSpaceOnUse">
      <stop offset=".86" stop-color="#875cf0"/>
      <stop offset="1" stop-color="#ea48a0"/>
    </linearGradient>
  </defs>
  <path class="cls-1" d="M112.55,194.75c-3.83-4.6-7.25-9.62-11.52-13.76-13.6-13.18-29.2-23.21-47.54-28.62-1.45-.43-1.88-.31-1.87,1.36.08,10.87.04,21.73.04,32.6v-.02c0,10.34-.03,20.68.01,31.02.01,5.17,1.34,10.01,4.17,14.38,8.69,13.43,24.7,16.8,38.14,12,11.42-4.07,18.84-14.11,19-25.37.1-7.24.02-14.49.02-21.73,0-.66.02-1.29-.45-1.86Z"/>
  <path class="cls-3" d="M240.53,196.73c-2.96-4.43-6.36-8.56-9.6-12.79-8.21-10.7-16.45-21.39-24.68-32.08-.42-.54-.66-1.16-1.68-.96-5.35,1.05-10.72,1.98-16.09,2.95,0,0,0,0,0,0,0,0,0,0,0,0-3.27.26-6.52.53-9.79.8-.69-.3-1.42-.14-2.13-.15-.07,0-.15,0-.22,0-3.03-.14-6.07,0-9.1-.05-.42-.02-.84-.02-1.25-.04-8.89-.93-17.63-2.81-26.43-4.28-3.32-.56-6.62-.4-9.86,1.07.43.61.76,1.1,1.12,1.57,6.76,8.83,13.52,17.65,20.29,26.48,11.92,15.54,23.84,31.08,35.76,46.62h0c1.93,2.59,3.82,5.2,5.79,7.75,1.57,2.04,3.39,3.86,5.48,5.38,7.16,5.21,15.15,6.88,23.9,5.88,11.18-1.28,20.76-9.14,23.77-19.99,2.84-10.22.45-19.57-5.27-28.15Z"/>
  <path class="cls-4" d="M53.59,90.47c13.25,4.04,24.18,11.44,32.45,22.63,1.1,1.49,2.22,2.95,3.6,4.78,1.08-8.5,4.43-15.3,10.66-20.56,0,0,0,0,0,0,3.45-2.02,6.94-4.01,10.9-4.81,1.47-.3,1.85-.91,1.85-2.36-.06-12.56,0-25.12-.09-37.68-.02-1.82.52-2.15,2.2-2.14,7.17.07,14.33-.02,21.5-.05h0c3.36.05,6.71.08,10.06.11,3.29.03,6.57-.07,9.85.35,6.22.8,11.44,3.35,15.7,8.05,3.43,3.79,4.64,8.27,4.64,13.15,0,7.16-.19,14.31-.35,21.47-.02,1.07.03,1.82,1.34,1.82,6.83.05,13.66.02,20.46-.73h0c4.16.01,8.26-.67,12.34-1.33,8.94-1.46,17.6-3.82,25.6-8.25,1.29-.71,2.07-1.59,2.44-3.07,2.11-8.52,1.41-17.04-.31-25.45-4.25-20.82-16.45-35.67-35.14-45.27C185.23,1.86,165.75-.4,145.78.12h0s0,.02,0,.03c0,0,0,0-.01,0-8.67-.03-17.33-.08-25.99-.08-6.69,0-13.39.05-20.08.08-.07,0-.13-.01-.2-.02-6.71,0-13.44-.3-20.13.06-9.01.48-16.27,4.66-21.87,11.73,0,0,0,0,.01.01,0,0,0,0,0,0-4.1,4.76-5.82,10.39-5.83,16.55-.04,19.75,0,39.51-.06,59.26,0,1.58.42,2.27,1.96,2.74Z"/>
  <polygon class="cls-5" points="57.51 11.92 57.52 11.92 57.52 11.92 57.51 11.92"/>
  <path class="cls-2" d="M167.4,143.13c9.56.43,19.06-.15,28.49-1.85,4.43-.79,8.89-1.53,13.01-3.48,5.25-2.48,9.16-6.48,12.45-11.16,0,0,0,0-.01-.01,0,0,0,0,.01,0h0c.36-.46.74-.91,1.06-1.4,4.91-7.67,7.99-16.11,10.38-24.83.47-1.7,1.19-3.37,1.19-5.41-4.96,3.05-10.12,4.95-15.46,6.42-9.69,2.67-19.61,3.65-29.61,4.15-6.12.3-12.25.26-18.33-.05-5.86-.3-11.73-.89-17.59-1.48-.12-.06-.22-.18-.34-.19-7.16-.81-14.29-1.78-21.34-3.24-5.01-1.04-9.87-.59-14.68.97v-.02c-2.06.2-3.89,1.14-5.69,2.04-10.33,5.2-15.49,14.18-18.1,24.99,0,0,0,0,.01.01,0,0,0,0-.01,0h-.01c-.99,2.43-.96,5.13-1.86,7.91-3.14-4.06-6-8.02-9.1-11.78-3.88-4.7-7.99-9.13-12.76-12.93,0,0,0,0,0,0-3.84-3.4-7.97-6.37-12.7-8.41h0s0,0,0-.01c-2.28-.88-4.57-1.71-6.82-2.65-5.86-2.46-11.93-2.63-18.11-1.81.06,0,.13,0,.19,0-.06,0-.13,0-.19.01-4.39.28-8.43,1.8-12.47,3.37-1.18.46-1.92,1.21-2.47,2.34-3.78,7.72-7.62,15.4-11.42,23.11-1.67,3.39-3.31,6.79-5.12,10.5,3.49-.46,6.65-.87,9.8-1.28h-.01s0,0,.01,0c.26.02.52.08.78.06,10.72-.68,21.36-.14,31.88,2.13,3.05.66,6.09,1.41,9.13,2.12.02,0,.04,0,.07,0-.02,0-.04.02-.07.03,7.86,2.42,15.52,5.35,22.62,9.55,8.44,5,16.43,10.64,23.74,17.2,0,0,0,0,0,0,4.71,4.98,8.71,10.55,13.43,15.96.33-4.73.41-9.11.35-13.49,0,0,0,0,.01,0,.01-.9.03-1.79.05-2.69,0-.02,0-.05.01-.07.32-.6.16-1.24.19-1.88.37-6.88-.19-13.81.99-20.66,0,0,0,0,.01,0,.78-2.21,2.58-3.39,4.47-4.47,2.32-1.32,4.95-1.6,7.48-2.22,8.08-.5,16,.79,23.91,2.11,6.16,1.03,12.29,2.22,18.54,2.5Z"/>
</svg>